<?xml version="1.0" encoding="iso-8859-1"?>
<!-- Generator: Adobe Illustrator 19.0.0, SVG Export Plug-In . SVG Version: 6.00 Build 0)  -->
<svg version="1.1" id="Layer_1" xmlns="http://www.w3.org/2000/svg" xmlns:xlink="http://www.w3.org/1999/xlink" x="0px" y="0px"
	 viewBox="0 0 512.001 512.001" style="enable-background:new 0 0 512.001 512.001;" xml:space="preserve">
<g>
	<g>
		<path d="M175.093,62.109c-10.469-6.181-17.764-12.213-37.993-12.213c-19.903,0-27.57,6.059-37.429,11.684
			c-7.758,25.315,11.209,50.912,37.636,50.912C163.566,112.492,182.42,87.269,175.093,62.109z"/>
	</g>
</g>
<g>
	<g>
		<path d="M40.632,299.461l-0.05,9.822c-0.052,10.489,8.407,19.035,18.897,19.087c0.032,0,0.065,0,0.097,0
			c10.444,0,18.937-8.44,18.989-18.897l0.05-10.013H40.632z"/>
	</g>
</g>
<g>
	<g>
		<path d="M195.228,299.463l-0.009,9.899c-0.01,10.488,8.485,18.999,18.975,19.009c0.007,0,0.011,0,0.018,0
			c10.48-0.001,18.982-8.492,18.992-18.975l0.009-9.934H195.228z"/>
	</g>
</g>
<g>
	<g>
		<path d="M188.388,125.038h-21.214c-4.165,10.88-18.011,47.054-22.381,58.472l5.292-24.931c0.372-1.751,0.102-3.577-0.761-5.145
			l-7.268-13.219l6.461-11.751c0.449-0.815,0.433-1.806-0.041-2.606c-0.473-0.801-1.334-1.291-2.264-1.291h-17.734
			c-0.929,0-1.791,0.491-2.264,1.291c-0.473,0.8-0.489,1.791-0.041,2.606l6.461,11.751l-7.295,13.268
			c-0.846,1.539-1.122,3.326-0.78,5.049l4.627,24.978c-4.237-10.867-17.894-47.563-22.148-58.472H86.227
			c-24.659,0-44.821,20.06-44.943,44.718L40.71,283.841h37.984l0.572-113.895c0-0.017,0-0.034,0-0.05
			c0.026-2.072,1.719-3.734,3.791-3.721c2.072,0.012,3.745,1.697,3.745,3.769l0.009,319.265c0,12.586,10.204,22.791,22.791,22.791
			s22.791-10.205,22.791-22.791V307.044h9.84v182.165c0,12.586,10.204,22.791,22.791,22.791c12.587,0,22.791-10.205,22.791-22.791
			c0-29.365-0.414-320.402-0.414-319.221c0-2.18,1.756-3.953,3.935-3.974c2.18-0.021,3.971,1.717,4.012,3.897l-0.105,113.93h37.984
			l0.105-113.972c0-0.037,0-0.075,0-0.113C233.209,145.099,213.047,125.038,188.388,125.038z M137.101,261.747
			c-3.161,0-5.724-2.563-5.724-5.724c0-3.161,2.563-5.724,5.724-5.724c3.161,0,5.724,2.563,5.724,5.724
			C142.824,259.184,140.262,261.747,137.101,261.747z M137.101,234.167c-3.161,0-5.724-2.563-5.724-5.724
			c0-3.161,2.563-5.724,5.724-5.724c3.161,0,5.724,2.563,5.724,5.724C142.824,231.604,140.262,234.167,137.101,234.167z
			 M137.101,206.587c-3.153,0-5.724-2.557-5.724-5.724c0-3.13,2.544-5.724,5.724-5.724c3.191,0,5.724,2.615,5.724,5.724
			C142.824,204.109,140.111,206.587,137.101,206.587z"/>
	</g>
</g>
<g>
	<g>
		<path d="M166.712,0h-58.733c-2.615,0-4.734,2.12-4.734,4.734v39.231c8.145-4.647,20.286-7.598,33.856-7.598
			c13.842,0,26.202,3.068,34.346,7.877V4.734C171.446,2.119,169.326,0,166.712,0z"/>
	</g>
</g>
<g>
	<g>
		<path d="M426.357,124.013h-16.873c-4.327,9.348-30.968,66.906-34.551,74.645c-4.146-8.957-30.282-65.423-34.551-74.645h-16.458
			c-24.488,0-44.938,19.921-45.064,44.837l-0.703,139.897c-0.052,10.517,8.43,19.084,18.946,19.138c0.034,0,0.065,0,0.098,0
			c10.436,0,18.987-8.442,19.04-18.946l0.703-139.897c0-0.017,0-0.032,0-0.049c0.025-2.078,1.723-3.746,3.8-3.733
			c2.078,0.012,3.755,1.7,3.755,3.779l0.009,320.112c0,12.619,10.231,22.851,22.851,22.851c12.62,0,22.851-10.231,22.851-22.851
			V306.5h9.866v182.649c0,12.619,10.231,22.851,22.851,22.851c12.621,0,22.851-10.23,22.851-22.851
			c0-66.044-0.415-321.917-0.415-321.369c0-2.152,1.737-3.902,3.89-3.916c2.152-0.015,3.915,1.709,3.944,3.862v0.001
			c0.016,1.155,0.131,24.599,0.007,141.098c-0.01,10.516,8.508,19.05,19.025,19.06c0.007,0,0.011,0,0.018,0
			c10.508,0,19.032-8.516,19.042-19.026l0.128-139.897c0.004-0.037,0.003-0.074,0.003-0.112
			C471.296,144.127,451.08,124.013,426.357,124.013z"/>
	</g>
</g>
<g>
	<g>
		<path d="M375.141,32.501c-21.797,0-39.466,17.669-39.466,39.466c0.001,21.976,17.882,39.466,39.466,39.466
			c21.645,0,39.466-17.553,39.466-39.466C414.607,50.171,396.937,32.501,375.141,32.501z"/>
	</g>
</g>
<g>
	<g>
		<path d="M391.203,114.456c-5.22,2.981-9.949,5.684-16.043,9.165c-4.937-2.821-9.484-5.418-16.043-9.165
			c-2.282-1.303-5.124,0.349-5.124,2.974c0,8.728,0,7.148,0,19.86c0,2.628,2.845,4.277,5.124,2.974l16.043-9.165l16.043,9.165
			c2.281,1.303,5.124-0.349,5.124-2.974c0-12.403,0-11.724,0-19.86C396.327,114.803,393.482,113.154,391.203,114.456z"/>
	</g>
</g>
<g>
</g>
<g>
</g>
<g>
</g>
<g>
</g>
<g>
</g>
<g>
</g>
<g>
</g>
<g>
</g>
<g>
</g>
<g>
</g>
<g>
</g>
<g>
</g>
<g>
</g>
<g>
</g>
<g>
</g>
</svg>
